<svg width="70" height="25" viewBox="0 0 70 25" fill="none" xmlns="http://www.w3.org/2000/svg">
    <style>
        :root { --color: #000000; }
        @media (prefers-color-scheme: light) { :root { --color: #000000; } }
        @media (prefers-color-scheme: dark) { :root { --color: #FFFFFF; } }
        path {
            fill: var(--color);
        }
        .bw {
            fill: var(--color);
        }
    </style>
    <rect x="17" y="24" width="23" height="3" transform="rotate(-90 17 24)" fill="white" class="bw"/>
    <rect x="9" y="19" width="13" height="3" transform="rotate(-90 9 19)" fill="white" class="bw"/>
    <rect x="4" y="14" width="3" height="3" transform="rotate(180 4 14)" fill="#FF6B00"/>
    <path d="M36.1985 17V6.09091H37.8445V15.5831H42.7876V17H36.1985ZM46.9185 17.1811C46.4 17.1811 45.9313 17.0852 45.5123 16.8935C45.0932 16.6982 44.7612 16.4158 44.5162 16.0465C44.2747 15.6772 44.1539 15.2244 44.1539 14.6882C44.1539 14.2266 44.2427 13.8466 44.4203 13.5483C44.5978 13.25 44.8375 13.0138 45.1394 12.8398C45.4412 12.6658 45.7786 12.5344 46.1515 12.4457C46.5243 12.3569 46.9043 12.2894 47.2914 12.2433C47.7814 12.1864 48.1792 12.1403 48.4846 12.1048C48.79 12.0657 49.0119 12.0036 49.1504 11.9183C49.2889 11.8331 49.3581 11.6946 49.3581 11.5028V11.4656C49.3581 11.0004 49.2267 10.6399 48.964 10.3842C48.7047 10.1286 48.3176 10.0007 47.8027 10.0007C47.2665 10.0007 46.8439 10.1197 46.535 10.3576C46.2296 10.592 46.0183 10.853 45.9011 11.1406L44.4043 10.7997C44.5819 10.3026 44.8411 9.90128 45.182 9.59588C45.5265 9.28693 45.9224 9.06321 46.3699 8.92472C46.8173 8.78267 47.2878 8.71165 47.7814 8.71165C48.1081 8.71165 48.4544 8.75071 48.8201 8.82884C49.1895 8.90341 49.5339 9.0419 49.8535 9.24432C50.1767 9.44673 50.4412 9.73615 50.6472 10.1126C50.8532 10.4854 50.9561 10.9702 50.9561 11.5668V17H49.4007V15.8814H49.3368C49.2338 16.0874 49.0794 16.2898 48.8734 16.4886C48.6674 16.6875 48.4029 16.8526 48.0797 16.984C47.7566 17.1154 47.3695 17.1811 46.9185 17.1811ZM47.2647 15.9027C47.7051 15.9027 48.0815 15.8157 48.394 15.6417C48.71 15.4677 48.9498 15.2404 49.1131 14.9599C49.28 14.6758 49.3635 14.3722 49.3635 14.049V12.9943C49.3066 13.0511 49.1966 13.1044 49.0332 13.1541C48.8734 13.2003 48.6905 13.2411 48.4846 13.2766C48.2786 13.3086 48.0779 13.3388 47.8826 13.3672C47.6873 13.392 47.524 13.4134 47.3926 13.4311C47.0836 13.4702 46.8013 13.5359 46.5456 13.6282C46.2935 13.7205 46.0911 13.8537 45.9384 14.0277C45.7892 14.1982 45.7147 14.4254 45.7147 14.7095C45.7147 15.1037 45.8603 15.402 46.1515 15.6044C46.4426 15.8033 46.8137 15.9027 47.2647 15.9027ZM56.5239 17.1651C55.732 17.1651 55.0502 16.9858 54.4784 16.6271C53.9102 16.2649 53.4735 15.766 53.1681 15.1303C52.8627 14.4947 52.71 13.7667 52.71 12.9464C52.71 12.1154 52.8662 11.3821 53.1787 10.7464C53.4912 10.1072 53.9316 9.60831 54.4997 9.24964C55.0679 8.89098 55.7373 8.71165 56.5079 8.71165C57.1294 8.71165 57.6833 8.82706 58.1698 9.05788C58.6563 9.28516 59.0487 9.60476 59.347 10.0167C59.6489 10.4286 59.8282 10.9098 59.885 11.4602H58.335C58.2497 11.0767 58.0544 10.7464 57.749 10.4695C57.4472 10.1925 57.0423 10.054 56.5345 10.054C56.0906 10.054 55.7018 10.1712 55.368 10.4055C55.0377 10.6364 54.7803 10.9666 54.5956 11.3963C54.411 11.8224 54.3186 12.3267 54.3186 12.9091C54.3186 13.5057 54.4092 14.0206 54.5903 14.4538C54.7714 14.8871 55.0271 15.2227 55.3573 15.4606C55.6911 15.6985 56.0835 15.8175 56.5345 15.8175C56.8364 15.8175 57.1098 15.7624 57.3548 15.6523C57.6034 15.5387 57.8112 15.3771 57.9781 15.1676C58.1485 14.9581 58.2675 14.706 58.335 14.4112H59.885C59.8282 14.9403 59.656 15.4126 59.3683 15.8281C59.0807 16.2436 58.6954 16.5703 58.2124 16.8082C57.733 17.0462 57.1702 17.1651 56.5239 17.1651ZM63.0531 14.2248L63.0424 12.2805H63.3194L66.5794 8.81818H68.4863L64.7683 12.7599H64.5179L63.0531 14.2248ZM61.5882 17V6.09091H63.1809V17H61.5882ZM66.7551 17L63.8255 13.1115L64.9228 11.9982L68.7101 17H66.7551Z" fill="white"/>
</svg>
